{"asset":{"version":"2.0","generator":"VECTARY"},"nodes":[{"translation":[-0.013317436189709802,-0.0010220138060451146,-0.005019903973842091],"scale":[0.0012472524272274135,0.0012472524272274135,0.0012472524272274137],"rotation":[0.8736058768463872,-0.0832481598741314,-0.21955770742534492,0.4262357668323399],"name":"500 P Oh'laville v15","children":[1,2]},{"translation":[0,0,0],"scale":[10,10.000000000000002,10.000000000000002],"rotation":[0.7071067811865475,0,0,0.7071067811865476],"name":"Body1","mesh":0},{"translation":[0,0,0],"scale":[10,10.000000000000002,10.000000000000002],"rotation":[0.7071067811865475,0,0,0.7071067811865476],"name":"Body2","mesh":1}],"materials":[{"pbrMetallicRoughness":{"baseColorFactor":[1,1,1,1],"baseColorTexture":{"index":0,"extensions":{"KHR_texture_transform":{"offset":[0,0],"scale":[1,1],"rotation":0}},"texCoord":0},"metallicRoughnessTexture":{"index":2,"extensions":{"KHR_texture_transform":{"offset":[0,0],"scale":[1,1],"rotation":0}},"texCoord":0},"metallicFactor":0,"roughnessFactor":1},"name":"Concrete","normalTexture":{"index":1,"scale":1,"extensions":{"KHR_texture_transform":{"offset":[0,0],"scale":[1,1],"rotation":0}},"texCoord":0},"emissiveFactor":[0,0,0],"extensions":{},"alphaMode":"OPAQUE","doubleSided":false}],"textures":[{"sampler":0,"source":0},{"sampler":0,"source":1},{"sampler":0,"source":2}],"images":[{"uri":"textura-papel-blanco_1194-2324_1.jpg","mimeType":"image/jpeg"},{"uri":"Concrete_002_NormalMap.jpg","mimeType":"image/jpeg"},{"uri":"textura-papel-blanco_1194-2324.jpg","mimeType":"image/jpeg"}],"samplers":[{"wrapS":10497,"wrapT":10497}],"meshes":[{"primitives":[{"mode":4,"attributes":{"POSITION":1,"NORMAL":2,"TEXCOORD_0":3},"material":0,"indices":0}]},{"primitives":[{"mode":4,"attributes":{"POSITION":5,"NORMAL":6,"TEXCOORD_0":7},"material":0,"indices":4}]}],"accessors":[{"bufferView":0,"byteOffset":0,"componentType":5125,"count":11016,"type":"SCALAR"},{"bufferView":1,"byteOffset":0,"componentType":5126,"count":2612,"max":[2.099998712539673,0.800000011920929,0.5],"min":[-0.5,0,-0.5],"type":"VEC3"},{"bufferView":2,"byteOffset":0,"componentType":5126,"count":2612,"type":"VEC3"},{"bufferView":3,"byteOffset":0,"componentType":5126,"count":2612,"type":"VEC2"},{"bufferView":4,"byteOffset":0,"componentType":5125,"count":8208,"type":"SCALAR"},{"bufferView":5,"byteOffset":0,"componentType":5126,"count":1714,"max":[2.571162223815918,0.800000011920929,-0.5034040808677673],"min":[-0.028836337849497795,2.990505265643151e-8,-1.503404140472412],"type":"VEC3"},{"bufferView":6,"byteOffset":0,"componentType":5126,"count":1714,"type":"VEC3"},{"bufferView":7,"byteOffset":0,"componentType":5126,"count":1714,"type":"VEC2"}],"bufferViews":[{"buffer":0,"byteOffset":0,"byteLength":44064,"target":34963},{"buffer":0,"byteOffset":44064,"byteLength":31344,"target":34962},{"buffer":0,"byteOffset":75408,"byteLength":31344,"target":34962},{"buffer":0,"byteOffset":106752,"byteLength":20896,"target":34962},{"buffer":0,"byteOffset":127648,"byteLength":32832,"target":34963},{"buffer":0,"byteOffset":160480,"byteLength":20568,"target":34962},{"buffer":0,"byteOffset":181048,"byteLength":20568,"target":34962},{"buffer":0,"byteOffset":201616,"byteLength":13712,"target":34962}],"scene":0,"scenes":[{"nodes":[0],"name":"Project Name"}],"extensionsUsed":["KHR_texture_transform"],"buffers":[{"byteLength":215328,"uri":"ProjectName.bin"}]}