{"accessors" : [{"bufferView" : 0, "byteOffset" : 0, "componentType" : 5123, "count" : 5370, "type" : "SCALAR", "max" : [5369], "min" : [0]}, {"bufferView" : 1, "byteOffset" : 0, "componentType" : 5126, "count" : 5370, "type" : "VEC3", "max" : [224447.828125, 163497.515625, -32010.541015625], "min" : [-96441.734375, 806.3189697265625, -163749.203125], "name" : "POSITION"}, {"bufferView" : 1, "byteOffset" : 12, "componentType" : 5126, "count" : 5370, "type" : "VEC2", "max" : [1.600000023841858, -0.6000000238418579], "min" : [-1.2000000476837158, -4.141590118408203], "name" : "TEXCOORD_0"}, {"bufferView" : 1, "byteOffset" : 20, "componentType" : 5126, "count" : 5370, "type" : "VEC3", "max" : [0.9991358518600464, 0.9993293285369873, 0.9985482096672058], "min" : [-0.9990801215171814, -0.9938825368881226, -0.9930769205093384], "name" : "NORMAL"}, {"bufferView" : 0, "byteOffset" : 10740, "componentType" : 5123, "count" : 3384, "type" : "SCALAR", "max" : [3383], "min" : [0]}, {"bufferView" : 2, "byteOffset" : 0, "componentType" : 5126, "count" : 3384, "type" : "VEC3", "max" : [306587.875, 70672.0625, 29930.4375], "min" : [-14301.69140625, -92019.109375, -101808.2421875], "name" : "POSITION"}, {"bufferView" : 2, "byteOffset" : 12, "componentType" : 5126, "count" : 3384, "type" : "VEC2", "max" : [1.600000023841858, -0.6000000238418579], "min" : [-1.2000000476837158, -4.141590118408203], "name" : "TEXCOORD_0"}, {"bufferView" : 2, "byteOffset" : 20, "componentType" : 5126, "count" : 3384, "type" : "VEC3", "max" : [0.9973209500312805, 0.9993293285369873, 0.9985482096672058], "min" : [-0.9983887672424316, -0.9938825368881226, -0.9930769205093384], "name" : "NORMAL"}], "asset" : {"generator" : "Aspose.3D 22.10", "version" : "2.0"}, "buffers" : [{"uri" : "data:application/octet-stream;base64,", "byteLength" : 297648}], "bufferViews" : [{"buffer" : 0, "byteOffset" : 0, "byteLength" : 17508, "target" : 34963}, {"buffer" : 0, "byteOffset" : 17512, "byteLength" : 171840, "byteStride" : 32, "target" : 34962}, {"buffer" : 0, "byteOffset" : 189356, "byteLength" : 108288, "byteStride" : 32, "target" : 34962}], "meshes" : [{"primitives" : [{"attributes" : {"POSITION" : 1, "TEXCOORD_0" : 2, "NORMAL" : 3}, "indices" : 0, "mode" : 4}], "name" : ""}, {"primitives" : [{"attributes" : {"POSITION" : 5, "TEXCOORD_0" : 6, "NORMAL" : 7}, "indices" : 4, "mode" : 4}], "name" : ""}], "nodes" : [{"mesh" : 0, "name" : "Body1"}, {"mesh" : 1, "name" : "Body2"}], "scene" : 0, "scenes" : [{"nodes" : [0, 1]}]}