{"asset":{"generator":"Khronos glTF Spline I/O v0.0.1","version":"2.0"},"scenes":[{"nodes":[0]}],"nodes":[{"name":"","children":[1,2,3]},{"name":"500 P Oh'laville v15","matrix":[0.8236211244243418,5.551115123126244e-17,-0.5671404088954948,0,-0.5671404088955622,2.2204460492507613e-16,-0.8236211244244395,0,5.551115123127002e-17,1.0000000000002196,3.3306690738762013e-16,0,-4.314209207608831,-104.93537085436607,38.168458297893814,1],"children":[4,5]},{"name":"Directional Light","translation":[200,300,300],"rotation":[-0.4062840720729887,0.12301291902225084,-0.2623788760260691,0.8665785595944042],"extensions":{"KHR_lights_punctual":{"light":0}}},{"name":"Personal Camera","camera":0,"translation":[625.3646399950867,342.5154595469593,694.0482080268365],"rotation":[-0.2798481384903275,0.3647052025796793,0.11591690523661945,0.8804762379957668]},{"name":"Body1","matrix":[1,0,0,0,0,1,0,0,0,0,1,0,0,0,0,1],"mesh":0},{"name":"Body2","matrix":[1,0,0,0,0,1,0,0,0,0,1,0,0,0,0,1],"mesh":1}],"cameras":[{"type":"perspective","perspective":{"aspectRatio":2.171628721541156,"yfov":0.7853981633974483,"znear":5,"zfar":100000}}],"meshes":[{"primitives":[{"attributes":{"POSITION":0,"NORMAL":1,"TEXCOORD_0":2}}]},{"primitives":[{"attributes":{"POSITION":3,"NORMAL":4,"TEXCOORD_0":5}}]}],"buffers":[{"uri":"data:application/octet-stream;base64,","byteLength":165312},{"uri":"data:application/octet-stream;base64,","byteLength":102144}],"bufferViews":[{"buffer":0,"byteOffset":0,"byteLength":61992,"target":34962},{"buffer":0,"byteOffset":61992,"byteLength":61992,"target":34962},{"buffer":0,"byteOffset":123984,"byteLength":41328,"target":34962},{"buffer":1,"byteOffset":0,"byteLength":38304,"target":34962},{"buffer":1,"byteOffset":38304,"byteLength":38304,"target":34962},{"buffer":1,"byteOffset":76608,"byteLength":25536,"target":34962}],"accessors":[{"bufferView":0,"byteOffset":0,"componentType":5126,"count":5166,"type":"VEC3","min":[-62.157623291015625,0,-62.5],"max":[262.1574401855469,100,62.5]},{"bufferView":1,"byteOffset":0,"componentType":5126,"count":5166,"type":"VEC3","min":[-1,-1,-1],"max":[0.9999980330467224,1,1]},{"bufferView":2,"byteOffset":0,"componentType":5126,"count":5166,"type":"VEC2","min":[-1.1999989748001099,-3.1415929794311523],"max":[1.599998950958252,0.6000000238418579]},{"bufferView":3,"byteOffset":0,"componentType":5126,"count":3192,"type":"VEC3","min":[-3.262162685394287,0,-187.92550659179688],"max":[321.05291748046875,100,-62.925506591796875]},{"bufferView":4,"byteOffset":0,"componentType":5126,"count":3192,"type":"VEC3","min":[-1,-1,-1],"max":[1,1,1]},{"bufferView":5,"byteOffset":0,"componentType":5126,"count":3192,"type":"VEC2","min":[-1.1999989748001099,-3.1415929794311523],"max":[1.599998950958252,0.6000000238418579]}],"extensions":{"KHR_lights_punctual":{"lights":[{"type":"directional","name":"Directional Light","color":[1,1,1],"intensity":0.7}]}},"extensionsUsed":["KHR_lights_punctual"]}